<svg height="549" viewBox="670 0 549 549" width="549" xmlns="http://www.w3.org/2000/svg" xmlns:xlink="http://www.w3.org/1999/xlink"><linearGradient id="a" x1="79.504484%" x2="28.114244%" y1="57.76656%" y2="80.179654%"><stop offset="0" stop-color="#2786d7"/><stop offset="1" stop-color="#096eb4"/></linearGradient><linearGradient id="b" x1="21.079693%" x2="86.76213%" y1="10.13739%" y2="63.243548%"><stop offset="0" stop-color="#02addc"/><stop offset="1" stop-color="#08e4cc"/></linearGradient><linearGradient id="c" x1="44.585397%" x2="94.87376%" y1="106.767085%" y2="55.6348%"><stop offset="0" stop-color="#0070ec" stop-opacity=".870766"/><stop offset=".614235364" stop-color="#0296e3" stop-opacity=".452524"/><stop offset="1" stop-color="#07dfd0" stop-opacity="0"/></linearGradient><linearGradient id="d" x1="50%" x2="48.323816%" y1="72.491905%" y2="94.161797%"><stop offset="0" stop-color="#0089e5" stop-opacity="0"/><stop offset="1" stop-color="#0070ed" stop-opacity=".809823"/></linearGradient><g fill="none" transform="matrix(.70710678 -.70710678 .70710678 .70710678 614.999998 269.260798)"><path d="m229.994117 459.98792c-127.022185 0-229.99401158-102.971826-229.99401158-229.994012 0-127.022185 102.97182658-229.99401159 229.99401158-229.99401159 127.022186 0 229.994012 102.97182659 229.994012 229.99401159 0 127.022186-102.971826 229.994012-229.994012 229.994012zm0-130.2c55.114711 0 99.794012-44.679301 99.794012-99.794012s-44.679301-99.794012-99.794012-99.794012-99.794012 44.679301-99.794012 99.794012 44.679301 99.794012 99.794012 99.794012z" fill="url(#a)"/><g transform="translate(.000105 -.000104)"><path d="m459.752389 226.784343c-1.261564 34.842907-29.905669 62.70219-65.05666 62.70219-34.06509 0-62.019114-26.164587-64.86196-59.493651l-.045745.00113c0-.196315-.000567-.392497-.001699-.588546-.126292-1.656415-.190596-3.330165-.190596-5.018933 0-.198642.00089-.397076.002666-.595299-3.202677-52.225506-46.572789-93.591234-99.604383-93.591234-55.114711 0-112.361624 43.843614-129.882661 107.863286-26.2616104 95.956629 50.961953 198.914203 129.842111 221.884189.046476.013534.093598.027042.141363.040526-.033603.000015-.067207.000023-.100813.000023-127.022185 0-229.994012-102.971827-229.994012-229.994012s102.971827-229.994012 229.994012-229.994012c125.948797 0 228.251991 101.238874 229.971999 226.779048l-.213622.005276z" fill="url(#b)"/><path d="m459.752389 226.784343c-1.261564 34.842907-29.905669 62.70219-65.05666 62.70219-34.06509 0-62.019114-26.164587-64.86196-59.493651l-.045745.00113c0-.196315-.000567-.392497-.001699-.588546-.126292-1.656415-.190596-3.330165-.190596-5.018933 0-.198642.00089-.397076.002666-.595299-3.202677-52.225506-46.572789-93.591234-99.604383-93.591234-55.114711 0-112.361624 43.843614-129.882661 107.863286-26.2616104 95.956629 50.961953 198.914203 129.842111 221.884189.046476.013534.093598.027042.141363.040526-.033603.000015-.067207.000023-.100813.000023-127.022185 0-229.994012-102.971827-229.994012-229.994012s102.971827-229.994012 229.994012-229.994012c125.948797 0 228.251991 101.238874 229.971999 226.779048l-.213622.005276z" fill="url(#c)"/><path d="m459.752389 226.784343c-1.261564 34.842907-29.905669 62.70219-65.05666 62.70219-34.06509 0-62.019114-26.164587-64.86196-59.493651l-.045745.00113c0-.196315-.000567-.392497-.001699-.588546-.126292-1.656415-.190596-3.330165-.190596-5.018933 0-.198642.00089-.397076.002666-.595299-3.202677-52.225506-46.572789-93.591234-99.604383-93.591234-55.114711 0-112.361624 43.843614-129.882661 107.863286-26.2616104 95.956629 50.961953 198.914203 129.842111 221.884189.046476.013534.093598.027042.141363.040526-.033603.000015-.067207.000023-.100813.000023-127.022185 0-229.994012-102.971827-229.994012-229.994012s102.971827-229.994012 229.994012-229.994012c125.948797 0 228.251991 101.238874 229.971999 226.779048l-.213622.005276z" fill="url(#d)"/></g></g></svg>